<?xml version="1.0" encoding="utf-8"?><svg xmlns="http://www.w3.org/2000/svg" xmlns:xlink="http://www.w3.org/1999/xlink"><symbol fill="none" viewBox="0 0 5 7" id="arrow-sharp" xmlns="http://www.w3.org/2000/svg"><path d="M2.936 6.392L.176 3.668 2.936.944h1.728L1.892 3.668l2.772 2.724H2.936z" fill="currentColor"/></symbol><symbol fill="none" viewBox="0 0 22 22" id="cube-in-square" xmlns="http://www.w3.org/2000/svg"><path d="M14 21.75H8C2.57 21.75.25 19.43.25 14V8C.25 2.57 2.57.25 8 .25h6c5.43 0 7.75 2.32 7.75 7.75v6c0 5.43-2.32 7.75-7.75 7.75zm-6-20C3.39 1.75 1.75 3.39 1.75 8v6c0 4.61 1.64 6.25 6.25 6.25h6c4.61 0 6.25-1.64 6.25-6.25V8c0-4.61-1.64-6.25-6.25-6.25H8z" fill="currentColor"/><path d="M11 12.08c-.13 0-.26-.03-.38-.1l-5.3-3.06a.742.742 0 01-.27-1.02c.21-.36.67-.48 1.02-.27l4.92 2.85 4.89-2.83c.36-.21.82-.08 1.02.27.2.35.08.82-.27 1.02l-5.26 3.04c-.11.06-.24.1-.37.1z" fill="currentColor"/><path d="M11 17.52c-.41 0-.75-.34-.75-.75v-5.44c0-.41.34-.75.75-.75s.75.34.75.75v5.44c0 .41-.34.75-.75.75z" fill="currentColor"/><path d="M11 17.75c-.58 0-1.15-.13-1.61-.38l-3.2-1.78c-.96-.53-1.7-1.8-1.7-2.9V9.3c0-1.09.75-2.36 1.7-2.9l3.2-1.78c.92-.51 2.3-.51 3.22 0l3.2 1.78c.96.53 1.7 1.8 1.7 2.9v3.39c0 1.09-.75 2.36-1.7 2.9l-3.2 1.78c-.46.26-1.03.38-1.61.38zm0-12c-.33 0-.65.06-.88.19l-3.2 1.78c-.49.27-.93 1.03-.93 1.58v3.39c0 .56.44 1.31.93 1.58l3.2 1.78c.46.26 1.3.26 1.76 0l3.2-1.78c.49-.27.93-1.03.93-1.58V9.3c0-.56-.44-1.31-.93-1.58l-3.2-1.78c-.23-.13-.55-.19-.88-.19z" fill="currentColor"/></symbol><symbol fill="none" viewBox="0 0 22 22" id="discount" xmlns="http://www.w3.org/2000/svg"><path d="M11 21.75c-.63 0-1.22-.24-1.66-.69l-1.52-1.52c-.12-.12-.44-.25-.6-.25H5.06c-1.3 0-2.35-1.05-2.35-2.35v-2.16c0-.16-.13-.48-.25-.6L.94 12.66C.5 12.22.25 11.63.25 11c0-.63.24-1.22.69-1.66l1.52-1.52c.12-.12.25-.44.25-.6V5.06c0-1.3 1.05-2.35 2.35-2.35h2.16c.16 0 .48-.13.6-.25L9.34.94c.88-.88 2.44-.88 3.32 0l1.52 1.52c.12.12.44.25.6.25h2.16c1.3 0 2.35 1.05 2.35 2.35v2.16c0 .16.13.48.25.6l1.52 1.52c.44.44.69 1.03.69 1.66 0 .63-.24 1.22-.69 1.66l-1.52 1.52c-.12.12-.25.44-.25.6v2.16c0 1.3-1.05 2.35-2.35 2.35h-2.16c-.16 0-.48.13-.6.25l-1.52 1.52c-.44.45-1.03.69-1.66.69zm-7.48-8.63c.4.4.69 1.1.69 1.66v2.16c0 .47.38.85.85.85h2.16c.56 0 1.26.29 1.66.69L10.4 20c.32.32.88.32 1.2 0l1.52-1.52c.4-.4 1.1-.69 1.66-.69h2.16c.47 0 .85-.38.85-.85v-2.16c0-.56.29-1.26.69-1.66L20 11.6a.84.84 0 00.25-.6c0-.23-.09-.44-.25-.6l-1.52-1.52c-.4-.4-.69-1.1-.69-1.66V5.06a.85.85 0 00-.85-.85h-2.16c-.56 0-1.26-.29-1.66-.69L11.6 2a.87.87 0 00-1.2 0L8.88 3.52c-.4.4-1.1.69-1.66.69H5.06a.85.85 0 00-.85.85v2.16c0 .56-.29 1.26-.69 1.66L2 10.4c-.16.16-.25.37-.25.6 0 .23.09.44.25.6l1.52 1.52z" fill="currentColor"/><path d="M14 15c-.56 0-1.01-.45-1.01-1s.45-1 1-1 1 .45 1 1-.44 1-.99 1zM8.01 9C7.45 9 7 8.55 7 8s.45-1 1-1 1 .45 1 1-.44 1-.99 1zM8 14.75c-.19 0-.38-.07-.53-.22a.754.754 0 010-1.06l6-6c.29-.29.77-.29 1.06 0 .29.29.29.77 0 1.06l-6 6c-.15.15-.34.22-.53.22z" fill="currentColor"/></symbol><symbol fill="none" viewBox="0 0 22 22" id="key-square" xmlns="http://www.w3.org/2000/svg"><path fill-rule="evenodd" clip-rule="evenodd" d="M2.095 2.095C3.429.76 5.426.25 8 .25h6c2.574 0 4.57.51 5.905 1.845C21.24 3.429 21.75 5.426 21.75 8v6c0 2.574-.51 4.57-1.845 5.905C18.571 21.24 16.574 21.75 14 21.75H8c-2.574 0-4.57-.51-5.905-1.845C.76 18.571.25 16.574.25 14V8c0-2.574.51-4.57 1.845-5.905zm1.06 1.06C2.24 4.071 1.75 5.574 1.75 8v6c0 2.426.49 3.93 1.405 4.845.916.915 2.419 1.405 4.845 1.405h6c2.426 0 3.93-.49 4.845-1.405.915-.916 1.405-2.419 1.405-4.845V8c0-2.426-.49-3.93-1.405-4.845C17.929 2.24 16.426 1.75 14 1.75H8c-2.426 0-3.93.49-4.845 1.405z" fill="currentColor"/><path fill-rule="evenodd" clip-rule="evenodd" d="M14.751 7.262a3.427 3.427 0 00-4.83-.002 3.419 3.419 0 00-.844 3.43.75.75 0 01-.187.75l-2.565 2.566a.49.49 0 00-.072.2v.005l.159 1.188c.004.019.023.07.075.123a.222.222 0 00.096.064h.006l1.208.162.025-.002a.405.405 0 00.152-.051l.007-.006 2.59-2.58a.75.75 0 01.754-.184 3.397 3.397 0 003.424-.845c1.33-1.339 1.325-3.503.002-4.818zm1.058-1.064c-1.922-1.91-5.035-1.912-6.95.002a4.912 4.912 0 00-1.331 4.482L5.25 12.96l-.014.014c-.184.194-.31.438-.384.66a1.715 1.715 0 00-.085.781l.16 1.194.002.015c.057.374.249.705.489.95.24.243.576.449.975.5l1.194.159c.275.04.552-.004.78-.079.224-.073.48-.203.678-.409l2.28-2.271a4.897 4.897 0 004.485-1.334l.002-.001c1.909-1.921 1.914-5.036-.003-6.94z" fill="currentColor"/><path fill-rule="evenodd" clip-rule="evenodd" d="M8.073 13.887a.75.75 0 011.06.006l.85.86a.75.75 0 11-1.066 1.054l-.85-.86a.75.75 0 01.006-1.06zM11.395 9.7a1 1 0 011-1h.008a1 1 0 110 2h-.008a1 1 0 01-1-1z" fill="currentColor"/></symbol><symbol fill="none" viewBox="0 0 22 22" id="message" xmlns="http://www.w3.org/2000/svg"><path d="M7 21.32c-.28 0-.57-.07-.83-.21-.57-.3-.92-.9-.92-1.54v-1.42c-3.02-.31-5-2.53-5-5.71v-6C.25 3 2.56.69 6 .69h10c3.44 0 5.75 2.31 5.75 5.75v6c0 3.44-2.31 5.75-5.75 5.75h-3.77l-4.26 2.84c-.29.19-.63.29-.97.29zM6 2.18c-2.58 0-4.25 1.67-4.25 4.25v6c0 2.58 1.67 4.25 4.25 4.25.41 0 .75.34.75.75v2.13c0 .13.08.19.13.22s.15.06.26-.01l4.45-2.96c.12-.08.27-.13.42-.13h4c2.58 0 4.25-1.67 4.25-4.25v-6c0-2.58-1.67-4.25-4.25-4.25H6z" fill="currentColor"/><path d="M11 11.11c-.41 0-.75-.34-.75-.75v-.21c0-1.16.85-1.73 1.17-1.95.37-.25.49-.42.49-.68 0-.5-.41-.91-.91-.91s-.91.41-.91.91c0 .41-.34.75-.75.75s-.75-.34-.75-.75c0-1.33 1.08-2.41 2.41-2.41s2.41 1.08 2.41 2.41c0 1.14-.84 1.71-1.15 1.92-.39.26-.51.43-.51.71v.21c0 .42-.34.75-.75.75zM11 13.6a.749.749 0 11-.002-1.498A.749.749 0 0111 13.6z" fill="currentColor"/></symbol><symbol fill="none" viewBox="0 0 20 20" id="search" xmlns="http://www.w3.org/2000/svg"><path fill-rule="evenodd" clip-rule="evenodd" d="M9 2a7 7 0 100 14A7 7 0 009 2zM0 9a9 9 0 1118 0A9 9 0 010 9z" fill="currentColor"/><path fill-rule="evenodd" clip-rule="evenodd" d="M13.943 13.943a1 1 0 011.414 0l4.35 4.35a1 1 0 01-1.414 1.414l-4.35-4.35a1 1 0 010-1.414z" fill="currentColor"/></symbol><symbol fill="none" viewBox="0 0 22 22" id="user-square" xmlns="http://www.w3.org/2000/svg"><path d="M14 21.75H8c-1.32 0-2.42-.13-3.35-.41a.767.767 0 01-.54-.78c.25-2.99 3.28-5.34 6.89-5.34s6.63 2.34 6.89 5.34c.03.36-.19.68-.54.78-.93.28-2.03.41-3.35.41zm-8.28-1.69c.66.13 1.41.19 2.28.19h6c.87 0 1.62-.06 2.28-.19-.53-1.92-2.72-3.34-5.28-3.34s-4.75 1.42-5.28 3.34z" fill="currentColor"/><path fill-rule="evenodd" clip-rule="evenodd" d="M2.095 2.095C3.429.76 5.426.25 8 .25h6c2.574 0 4.57.51 5.905 1.845C21.24 3.429 21.75 5.426 21.75 8v6c0 1.95-.291 3.564-1.01 4.813-.736 1.28-1.875 2.098-3.396 2.529a.75.75 0 01-.951-.659c-.177-2.092-2.4-3.963-5.393-3.963s-5.216 1.87-5.393 3.963a.75.75 0 01-.951.659c-1.52-.43-2.66-1.25-3.396-2.53C.54 17.565.25 15.952.25 14V8c0-2.574.51-4.57 1.845-5.905zm1.06 1.06C2.24 4.071 1.75 5.574 1.75 8v6c0 1.83.279 3.14.81 4.065.393.683.948 1.195 1.725 1.55C5.03 17.01 7.858 15.22 11 15.22s5.97 1.789 6.715 4.396c.777-.356 1.332-.868 1.725-1.551.531-.924.81-2.236.81-4.065V8c0-2.426-.49-3.93-1.405-4.845C17.929 2.24 16.426 1.75 14 1.75H8c-2.426 0-3.93.49-4.845 1.405zM11 6.75a2.826 2.826 0 00-2.83 2.83A2.835 2.835 0 0011 12.42a2.835 2.835 0 002.83-2.84A2.826 2.826 0 0011 6.75zM6.67 9.58A4.326 4.326 0 0111 5.25a4.326 4.326 0 014.33 4.33A4.335 4.335 0 0111 13.92a4.335 4.335 0 01-4.33-4.34z" fill="currentColor"/><path d="M11 13.92a4.34 4.34 0 01-4.33-4.34c0-2.39 1.94-4.33 4.33-4.33s4.33 1.94 4.33 4.33A4.34 4.34 0 0111 13.92zm0-7.17a2.836 2.836 0 000 5.67 2.836 2.836 0 000-5.67z" fill="currentColor"/></symbol><symbol fill="none" viewBox="0 0 22 21" id="wallet" xmlns="http://www.w3.org/2000/svg"><path fill-rule="evenodd" clip-rule="evenodd" d="M2.602 14.11a.75.75 0 01.75.75c0 1.161 1.102 2.19 2.83 2.19 1.714 0 2.82-1.036 2.82-2.19a.75.75 0 011.5 0v2.03c0 2.229-2.037 3.86-4.32 3.86-2.28 0-4.33-1.628-4.33-3.86v-2.03a.75.75 0 01.75-.75zm1.003 3.746c.43.791 1.375 1.394 2.577 1.394s2.144-.604 2.57-1.398c-.74.451-1.643.698-2.57.698-.93 0-1.836-.244-2.577-.694z" fill="currentColor"/><path fill-rule="evenodd" clip-rule="evenodd" d="M6.16 9.76c-.818 0-1.53.28-2.035.724h-.001c-.5.438-.784 1.01-.784 1.626 0 .354.098.68.271.97.428.693 1.365 1.22 2.559 1.22 1.199 0 2.133-.52 2.558-1.218.174-.29.272-.617.272-.972 0-.617-.285-1.193-.79-1.614l-.01-.008c-.511-.44-1.227-.728-2.04-.728zm-3.024-.404C3.93 8.66 4.998 8.26 6.16 8.26c1.165 0 2.227.411 3.015 1.088.812.679 1.325 1.661 1.325 2.762 0 .644-.181 1.237-.487 1.746l-.002.004C9.256 15.1 7.77 15.8 6.17 15.8c-1.604 0-3.085-.711-3.839-1.937l-.004-.007a3.373 3.373 0 01-.487-1.746c0-1.105.516-2.072 1.296-2.754l.494.564-.494-.564z" fill="currentColor"/><path fill-rule="evenodd" clip-rule="evenodd" d="M6.182 9.75c-1.669 0-2.83 1.15-2.83 2.36v2.75c0 1.15 1.112 2.19 2.83 2.19 1.716 0 2.82-1.028 2.82-2.19v-2.75c0-.617-.286-1.198-.782-1.634-.512-.44-1.226-.726-2.038-.726zm-4.33 2.36c0-2.23 2.038-3.86 4.33-3.86 1.166 0 2.23.413 3.02 1.092l.004.004c.782.684 1.296 1.662 1.296 2.764v2.75c0 2.278-2.097 3.69-4.32 3.69-2.223 0-4.33-1.42-4.33-3.69v-2.75zM17.92 8.7c-.36 0-.675.14-.903.373l-.013.014c-.266.26-.415.629-.377 1.022v.009c.053.635.664 1.182 1.413 1.182h1.943a.276.276 0 00.267-.27V8.97a.276.276 0 00-.267-.27H17.92zm-1.97-.68a2.743 2.743 0 011.97-.82h2.107a1.777 1.777 0 011.723 1.77v2.06A1.777 1.777 0 0120 12.8h-1.96c-1.41 0-2.778-1.03-2.907-2.553a2.758 2.758 0 01.816-2.227z" fill="currentColor"/><path fill-rule="evenodd" clip-rule="evenodd" d="M6 2.25c-.244 0-.476.017-.696.051l-.02.003c-1.108.14-1.978.613-2.574 1.313-.598.7-.96 1.676-.96 2.883v2a.75.75 0 01-1.5 0v-2c0-1.513.458-2.848 1.318-3.857C2.428 1.635 3.648 1 5.086.817 5.383.772 5.688.75 6 .75h9c.27 0 .56.01.854.057 1.451.173 2.686.804 3.556 1.813.873 1.012 1.34 2.355 1.34 3.88v1.45a.75.75 0 01-.75.75h-2.08c-.359 0-.675.14-.903.373l-.013.014c-.266.26-.415.63-.377 1.022v.009c.053.635.664 1.182 1.413 1.182H20a.75.75 0 01.75.75v1.45c0 1.67-.56 3.12-1.595 4.155C18.121 18.69 16.67 19.25 15 19.25h-2.5a.75.75 0 010-1.5H15c1.33 0 2.38-.44 3.095-1.155.715-.716 1.155-1.765 1.155-3.095v-.7h-1.21c-1.41 0-2.778-1.03-2.907-2.553a2.758 2.758 0 01.816-2.227 2.743 2.743 0 011.971-.82h1.33v-.7c0-1.215-.368-2.197-.975-2.9-.606-.702-1.49-1.175-2.612-1.305A3.848 3.848 0 0015 2.25H6z" fill="currentColor"/></symbol></svg>